<svg xmlns="http://www.w3.org/2000/svg" xmlns:xlink="http://www.w3.org/1999/xlink" version="1.0" width="3158.385" height="3715.747"><defs><linearGradient id="a"><stop style="stop-color:#c3bdc9;stop-opacity:1" offset="0"/><stop style="stop-color:#c3bdc9;stop-opacity:0" offset="1"/></linearGradient><linearGradient id="c"><stop style="stop-color:#c3bdc9;stop-opacity:1" offset="0"/><stop style="stop-color:#c3bdc9;stop-opacity:0" offset="1"/></linearGradient><linearGradient id="b"><stop style="stop-color:#c3bdc9;stop-opacity:1" offset="0"/><stop style="stop-color:#c3bdc9;stop-opacity:0" offset="1"/></linearGradient><linearGradient id="d"><stop style="stop-color:#c3bdc9;stop-opacity:1" offset="0"/><stop style="stop-color:#c3bdc9;stop-opacity:0" offset="1"/></linearGradient><linearGradient id="e"><stop style="stop-color:#c3bdc9;stop-opacity:1" offset="0"/><stop style="stop-color:#c3bdc9;stop-opacity:0" offset="1"/></linearGradient><linearGradient id="f"><stop style="stop-color:#c3bdc9;stop-opacity:1" offset="0"/><stop style="stop-color:#c3bdc9;stop-opacity:0" offset="1"/></linearGradient><linearGradient x1="2428.736" y1="1135.012" x2="1815.911" y2="1603.801" id="i" xlink:href="#f" gradientUnits="userSpaceOnUse" gradientTransform="translate(-13.787 -14.807)"/><linearGradient x1="1895.557" y1="1930.344" x2="871.349" y2="1400.367" id="h" xlink:href="#e" gradientUnits="userSpaceOnUse" gradientTransform="translate(-13.787 -14.807)"/><linearGradient x1="915.416" y1="1266.386" x2="1253.621" y2="1533.992" id="g" xlink:href="#d" gradientUnits="userSpaceOnUse" gradientTransform="translate(-13.787 -14.807)"/></defs><g style="fill:#dc143c;fill-opacity:1"><path d="m300.32 101.807 28.977 2071.24c0 .001 2.603 186.437 191.737 310.252 52.835 34.588 136.897 61.956 265.98 60.19 39.347-.555 264.49-1.702 377.892 1.425 82.795 2.284 220.62 59.655 230.29 155.892h19.435c8.326-111.452 146.228-153.485 230.29-155.892 112.856-3.23 338.51-1.968 377.856-1.426 129.084 1.779 213.145-25.601 265.98-60.189 189.134-123.815 191.738-310.251 191.738-310.251l28.976-2071.241H300.32z" style="fill:#dc143c;fill-opacity:1;fill-rule:evenodd;stroke:none" transform="matrix(1.42968 0 0 1.42968 -429.364 -145.551)"/></g><path d="M1319.821 196.515c51.469 89.842 72.11 174.862 100.557 256.062 47.117-6.4 101.024 6.41 154.406 10.162 60.943 11.952 109.145 17.126 154.406 10.17 27.783-127.952 51.835-191.873 107.15-281.888-24.544 16.692-76.78 23.514-97.26 53.848-30.696-27.307-55.043-10.214-70.334 18.684 5.202-23.065-1.675-42.618-31.87-44.509 17.9-33.56-9.662-50.206-38.464-35.17-.8-29.23-24.161-29.473-25.826-45.059-3.877 18.052-24.353 9.122-21.43 52.756-23.315-18.735-46.096-6.529-37.365 26.374-28.29-.127-36.188 23.169-33.52 52.2-19.4-45.014-55.846-31.267-68.685-15.387-22.75-44.822-39.94-16.519-91.765-58.243z" style="fill:#f6d155;fill-opacity:1;fill-rule:evenodd;stroke:none"/><path d="M1773.777 425.505c-32.784 56.346-46.829 60.261-190.594 38.154-113.707-11.344-216.142-43.455-220.844 59.596 37.613 4.466 92.32 8.548 116.146 88.936l-69.583 59.373c-49.15 7.736-126.667 73.496-177.875 12.347-14.055 57.502 38.734 73.682 93.812 71.376 38.594-3.96 50.918-14.321 122.97-28.565l19.093 20.536c108.823 9.006 165.18 164.647-11.313 255.965-6.835 21.137 4.443 46.496 21.22 49.498-51.311 72.576-135.51 163.121-165.72 103.377-7.036 6.612-26.858 55.995 11.563 83.282-29.19 35.944-40.469 78.473-38.906 127.594-116.33-18.173-192.954-37.892-166.876-146.686 123.775 5.717 157.314-143.76 139.126-219.53-71.927-302.66-462.36-545.403-746.533-553.317 15.808 82.35 66.615 141.767 124.47 196.566-75.36-36.684-162.812-72.25-254.407-53.598 10.586 65.052 45.857 140.509 194.281 263.599-106.98-63.525-205.652-125.543-240.406-176.063-15.441 20.83-24.143 105.67 67.187 167.593-29.003-11.568-172.345-10.54-215.688 21.22 26.186 59.584 145.808 163.728 243.97 195.839-93.078-13.536-180.326-51.044-260.22-118.779-11.802 10.59.454 120.855 99.688 164.75-32.14 2.14-141.78 32.896-170.094 68.22 57.203 76.364 203.471 143.633 276.156 143.907-99.146 12.93-207.42-7.007-252.437-21.187 1 25.34-20.32 127.107 251.031 110.308-96.81 45.742-242.925 140.962-266.25 224.909 94.053 41.64 262.712 7.327 349.938-20.032-257.937 157.212-298.188 173.367-346.032 162.815 62.453 132.038 212.943 42.829 342.97-31.128-159.854 213.884-185.846 322.922-182.438 474.468 128.73-15.49 315.074-199.888 414.375-357.095-115.07 236.695-183.562 426.976-309.031 482.97 142.947 56.633 265.552-122.758 351.688-313.026-32.99 120.439-46.638 375.74-4.5 438.186 129.237-87.562 227.135-281.977 292.75-504.874-22.381 109.837-38.944 219.66-79.188 329.495 83.075 15.802 125.538-133.265 153.563-220.591 2.587 4.574 5.67 8.425 13.688 15.873 104.952-76.14 138.347-252.887 145.719-322.09 95.691 27.192 137.797-7.512 162.312-25.315 20.958 29.026 22.29 74.301 28.188 80.497-104.08-84.54-215.714.192-220.282 141.002-11.277 58.76-42.674 126.724-121.25 179.313 4.912 6.394 15.89 8.987 30.125 8.72-13.69 23.55-26.107 43.908-49.312 65.25 5.997 3.474 13.495 3.947 20.593 5.218-17.464 29.172-46.62 56.716-75.75 70.75 6.99 6.7 10.967 8.949 32.156 14.69-19.413 25.781-51.09 49.039-80.968 61.59 57.008 33.861 100.562 38.205 135.906 34.973.063-.01.125 0 .187 0-22.555 44.617-58.932 67.21-94.468 87.249 11.054 10.38 24.351 12.628 35.406 9.53-32.123 33.375-66.057 59.667-96.688 69.16 5.578 4.176 9.488 9.919 29.22 8.437-21.923 27.052-48.514 53.47-95.563 65.748 9.309 17.905 28.445 15.158 44.968 15.752-12.85 27.665-53.098 36.953-93.843 45.531 30.705 8.68 51.583 25.174 33.312 20.875-12.395 14.94-24.558 22.676-51.125 26.656-27.299 4.087-125.019-31.108-164.407-17.535-11.15-22.203-38.135-37.501-66.593-37.501-36.363 0-72.104 23.18-73.782 55.565-5.632-3.902-29.361-7.025-25.75 21.124 8.562 16.577 8.98 29.882 61.313 50.035 8.525 3.795 18.9 5.781 31.469 5.25 18.64-.785 39.494-10.15 55.093-23.691l-.312.561c26.057 4.823 54.746 9.192 70.594 15.816-41.226 3.29-55.405 26.042-78.907 42.408-9.894-.498-18.076-2.945-27.03-4.376l.28.313c-5.372-1.353-10.798-1.947-16.093-1.66-29.432 1.59-59.1 34.761-62.282 72.346-.645 7.62 1.24 14.903 4.938 21.565l-.438 6.4c-8.585 10.597-5.184 19.023 3.188 25.129 35.93 14.27 57.36 5.493 70.281 2.874 32.6-3.953 59.875-30.826 59.875-60.72v-.218l.688.748c38.565-8.01 76.591-18.722 97.719-34.276 1.087 2.344 1.723 4.9 1.25 8.03-13.42 7.952-35.49 20.58-47.157 59.5-3.481-.325-6.8-.497-9.937-.497-44.111-.07-55 30.392-54.219 55.278.76 24.26 9.577 39.892 22.156 49.314-2.67 15.106-.817 27.734 14.813 32.78 52.66 8.26 65.326-18.984 75.906-18.312-.586-6.925.83-11.837 2.781-16.219 16.152-7.499 27.107-13.631 28.625-43.972 1.386-18.844-1.822-30.38-8-37.745l1.407.402c.006.052.024.104.03.156.051-.052.105-.087.157-.121l.438.121-.062-.442c48.229-41.175 79.11-73.681 99.937-101.155 18.559 4.268 60.18 3.29 80.656-3.564l-.812 7.378c-19.32 18.384-6.188 62.28 19.313 61.309-1.098 4.126-.898 7.85 0 11.97 16.549 10.208 47.131 3.04 70.468 8.253 11.967-1.406 17.652-9.448 14.625-25.844l-.406-.249c18.721-11.09 31.28-31.089 28.875-56.378 0-34.946-27.287-62.86-60.938-65.064l.188-.156c-36.016-3.89-70.574 22.088-63.031-34.002 98.592-116.753 233.183-293.128 269.969-314.559-2.937-3.82-4.916-8.84-6.594-13.72 14.606 38.67 69.857 79.443 127.97 75.935-10.462-19.91-22.075-37.597-26.22-90.813 8.687 12.558 23.506 18.448 41.625 22.16-27.167-124.317 13.368-226.59 96.844-320.066-6.627 120.285-21.822 241.325-94.844 363.936 37.575 11.766 86.678-26.535 93.438-49.281 7.991 108.309-94.634 247.719-174.906 180.879-50.393 110.794 69.12 164.558 144.5 100.247-12.742 67.026-65.12 106.425-122.22 121.813-57.099 15.388-116.59-8.872-78.624-100.28-8.048-4.758-122.583-7.659-125.813 117.22 3.415 72.155 52.138 99.308 56.531 100.56-163.313 123.895 1.221 261.977 135.97 235.155 106.851-16.486 167.573-103.064 206.28-165.842-11.702 45.167-60.02 190.192 63.095 347.251 121.98-190.499 70.385-318.845 67.437-339.216 95.886 147.791 190.43 158.44 246.313 154.78 95.52 1.532 230.754-148.57 58.813-244.596 87.99-41.89 93.794-215.915-30.157-224.845 25.53 68.955-28.347 110.627-87.781 105.249-59.434-5.372-114.209-39.642-135.281-116.843 117.015 56.275 171.325-54.435 131.5-114.53-99.863 82.573-147.093-49.887-160.5-128.718 25.509 19.419 47.587 26.164 90.5 19.815-81.234-104.464-100.202-244.59-107.47-376.188 55.289 87.907 109.87 195.501 108.095 300.903 12.794-6.279 24.424-7.985 47.468-54.123 2.078 78.837-6.92 89.51-33.593 122.496 43.679 18.358 101.044-16.952 128.343-63.812.087-.122.157-.25.25-.37 84.87 114.574 176.479 232.183 265.595 323.124 19.326 20.173 26.014 40.345-9.781 47.435-114.53-42.274-126.545 77.489-79.032 93.688-3.749 10.826-4.799 22.05-1.53 33.873 22.536 6.95 68.598-11.727 80.937-12.405 5.736-5.174 5.788-16.014 5.625-27.09 11.498-.569 19.362-6.598 24.844-16.192 22.333 4.286 43.999 7.147 72.25-16.187l84.688 85.065c4.395 2.53-4.486 11.613 7.5 12.781-9.414 56.493 12.069 62.912 30.5 77.157-3.78 54.045 77.104 22.886 85.031 25.965 8.567-5.052 9.297-10.89 7.907-16.934 9.402-9.862 5.002-14.87 1.906-21.845 40.522-61.769-16.95-108.865-48.563-103.467-33.628-36.908-57.873-52.423-85.031-74.531 55.574 20.97 141.315 44.682 165.938 62.841 9.373 63.034 64.646 36.992 105.375 39.157 12.656-17.777 5.858-23.29 0-29.377 53.604-69.146-59.49-125.882-107.625-85.032-28.558-26.35-53.28-30.955-79.032-41.405 10.749-10.808 33.51-19.246 84.688-22.561 22.956 15.203 45.888 20.549 68.844 3.75 9.871 21.621 29.523 16.013 36.5 12.034 16.791-19.361 17.263-48.757 21.844-75.63-4.58-9.735-11.881-16.084-24.47-15.81-34.76-59.462-101.902-23.308-105.75 3.374-57.873 4.74-109.34 12.123-170.468 36.53-20.163 6.075-39.348-15.739-56.438-28.246 15.471-6.183 28.963-13.235 28.594-26.349-24.755-2.427-48.925-.696-77.531-30.092l7.53-20.313c-22.079-6.764-45.815-22.849-74.874-68.5 6.094-3.629 11.844-9.672 16.937-20.314-33.03-7.633-60.07-25.116-82.062-50.807 7.872-3.858 15.349-10.566 22.218-21.443-30.808-18.595-60.46-34.775-119.5-111.714-.222-.377-.443-.79-.656-1.123 62.173 10.38 127.11 4.254 165.532-23.692-30.554-8.515-84.473-26.292-108.532-72.813 11.931-.97 18.49-3.302 25.907-5.404-46.628-30.782-58.976-47.428-70.813-72.378 9.813.984 23.844-3.475 28.531-10.31-30.066-13.523-43.248-32.238-53.968-52.628 12.356.256 25.353 2.664 35.343-4.969-118.774-53.573-102.26-331.282-229.75-332.126-56.743 4.644-67.049 16.94-96.312 31.88 8.581-23.754 23.12-46.022 38.28-68.13 69.634 32.526 124.824 14.193 143.532-2.12 9.51 111.61 45.303 231.373 122.782 291.308 13.28-7.48 29.233-17.093 38.968-27.837 13.818 103.684 52.537 239.964 139.47 228.652-40.063-99.833-39.423-200.15-43.844-299.906 36.445 292.752 126.294 463.494 200.562 514.69 34.217-45.205 59.721-258.89 43.125-387.218 73.021 132.173 154.062 254.566 222 253.902 30.779-.307 64.957-25.5 85.595-31.874-106.49-42.97-178.784-239.039-244.188-361.126 122.722 192.172 268.39 278.73 337.094 291.75 2.461-59.431 15.617-225.708-137.188-456.091 273.08 144.565 331.103 51.203 347.094 1.405-123.231 42.944-289.432-115.456-400.75-165.81l-1.5-4.408c162.878 74.333 322.697 99.954 422.157 37.279-85.018-131.19-167.354-178.983-256.844-212.69 176.82 19.63 234.788-40.523 238.438-106.374-64.528 21.808-124.224 25.213-201.157 12.91 169.218-34.097 199.732-105.888 198.063-113.067-43.343-33.676-125.192-71.6-199.125-78.562 204.028-73.311 139.174-142.426 131.594-164.124-63.444 59.469-174.022 101.895-193.563 100.126 95.239-49.664 177.823-179.595 172.47-194.28-47.578-24.484-146.117-23.283-185.72-11.312 39.624-43.475 91.652-117.885 43.656-179.781-46.16 65.244-90.056 99.941-133.906 134 39.793-50.334 86.014-108.079 101.844-226.282-59.59 7.805-113.6 1.961-190.938 53.03 44.377-55.438 71.689-109.995 77.094-176.062-266.518 18.703-578.046 158.426-728.376 506.782-43.633 102.337-9.589 276.515 127.563 256.656 21.635 87.887-36.516 141.595-162.876 137.717-2.673-29.421 6.545-87.714-29.687-118.407 30.694-1.987 36.705-17.777 43.125-31.185-82.477-19.035-69.12-46.406-53.75-192.939 10.845 4.504 23.213 1.897 32.594-6.783-34.082-31.42-22.815-89.542-5.625-272.656 3.452-79.808-12.986-119.756-30.5-133.528 10.558-5.36 17.477-14.034 12.03-33.938 38.149-6.7 21.992-53.254 6.282-68.347-7.66 20.753-40.352 28.412-71.344 5.41 37.47-17.08 37.81-59.577 9.188-89.095zm154.157 1967.88c1.264 1.526 2.578 2.964 3.906 4.369a146.273 146.273 0 0 1-3.969-4.12c.017-.087.035-.174.07-.249zm-779.939 5.653c-3.69 13.817 2.87 51.587 3.657 76.715 12.63 6.215 34.928-.217 60.5-9.964-1.388.6-2.747 1.188-4.125 1.782-19.24 7.128-42.16 14.423-56.563 8.623l-4.5-56.217c-.953-6.35-.86-13.204.906-20.907.043-.013.082-.017.126-.035zm-9.406 2.625a79.19 79.19 0 0 1-6.5 1.623 204.946 204.946 0 0 0 6.5-1.623zm805.47 6.874c28.175 20.6 62.955 21.174 75.781 18.096a62.384 62.384 0 0 0 1.938-4.842c-.45 1.82-.97 3.66-1.531 5.532-26.542 4.043-52.146-.332-76.188-18.786zm-970.845 470.066c-.002.017.002.035 0 .07l-.063-.035c.021-.013.042-.017.063-.035zm722.595 31.28c26.484 27.8 128.631 103.372 247.125 66.84 9.845 66.968-47.048 92.187-91.969 83.034-43.908-8.943-109.941-43.98-155.156-149.874zm-235.438 17.126c-38.448 73.157-102.174 135.015-158.907 149.905-56.732 14.89-109.593-13.319-89-86.968 122.51 41.015 222.056-31.53 247.907-62.937z" style="fill:#fff;fill-rule:evenodd;stroke:none"/><path d="M895.214 1571.193c-41.363-48.865-35.302-79.756-34-97.002-45.639-34.449-33.642-48.055-41.5-61.999 15.833 27.908 31.666 46.393 47.5 49 30.166 27.645 60.333 36.94 90.5 55.003-184.481-100.841-133.64-224.545-131.5-260.002-28.828.958-50-4.97-65.5-16.001 5.311-50.002 31.557-90.647 87.5-117.999-7 2.427-14 5.755-21 7-6.561-1.366-22.485-42.586-2.5-69.503 11.48-7.27 42.526-9.83 74 2.504 18.611-37.457 42.714-70.8 93-84.502 12.419 12.832 33.404 51.075 18.5 117.5 20.634 7.647 40.81 17.266 57.5 42-5.167 21.11-10.333 27.057-15.5 32.5 80.672.843 88.526-112.378-1.414-124.291 14.556-106.597-122.117-170.205-181.586-38.71-109.44-29.35-138.814 55.906-97.5 122.503-13.352 9.766-121.623 89.619-18.5 203.996-.208 56.339 14.106 111.074 90.5 159.001 21.948 64.592 35.842 64.739 51.5 79.002zM2251.674 976.095l14.563-27.633c98.503-15.369 158.043 50.539 119.49 128.455 79.525 68.016 35.78 156.37-12.322 174.006 57.427-42.184 25.827-55.215 16.056-54.518 3.07-1.406 7.889-4.075 11.95-7.467-3.17-37.17-17.776-72.353-75.056-114.633 28.297-31.338 25.45-61.105 21.658-82.152-31.53-8.208-59.456-5.608-84.017 7.097l-12.322-23.155zM2115.38 1167.654c4.55-15.381 8.732-40.089 36.594-63.48-8.724 6.368-18.41 14.174-29.126 23.525-35.819-14.525-58.792-47.332-64.226-67.21 21.907-28.317 74.06-24.21 81.403-22.408-15.156-57.112 4.487-99.526 18.67-115.757 47.218 4.356 71.672 28.668 90.738 50.411l14.19-25.39c-12.896-40.077-52.426-70.258-98.94-60.696-38.876 4.132-83.003 37.897-65.36 117.079-117.215 47.236-67.31 159.62 16.057 163.926z" style="fill:#dfdde2;fill-opacity:1;fill-rule:evenodd;stroke:none"/><path d="M1860.343 1368.175c-4.31 43.218-12.8 74.735-22.03 104.182 159.301-23.909 395.26-64.943 363.324-240.105-29.001 21.111-58.002 24.97-87.004 25.39-4.954-24.943-7.711-51.458 1.12-86.251-26.313 35.65-57.38 49.114-89.617 57.13 144.168 64.343-60.994 178.107-146.75 139.654h-19.043z" style="fill:#f1eef0;fill-opacity:1;fill-rule:evenodd;stroke:none"/><path d="M1285.02 1433.82c4.565 49.594 19.955 109.938 35.116 165.817-10.095-15.956-40.737-113.119-35.117-165.816z" style="fill:#e8e6eb;fill-opacity:1;fill-rule:evenodd;stroke:none"/><path d="M1758.968 1398.44c-38.517 152.587 131.296 137.78 12.146-18.742 115.833 70.91 39.89 176.944 34.062 200.668-18.173-81.845-89.845-102.503-46.208-181.926z" style="fill:#c3bdc9;fill-opacity:1;fill-rule:evenodd;stroke:none"/><path d="m991.631 980.439-57.537 169.016c-14.23-6.042-27.477-11.746-45.98-33.215.438-58.55 52.258-131.541 103.517-135.801z" style="fill:#fff;fill-opacity:1;fill-rule:evenodd;stroke:none"/><path d="m1037.354 1309.753-103.635-160.125c16.192-.364 35.088.07 57.603-5.32 30.5 28.584 64.432 102.891 46.032 165.445z" style="fill:#c3bdc9;fill-opacity:1;fill-rule:evenodd;stroke:none"/><path d="M1008.036 1096.49c31.223 8.68 52.877 28.973 56.46 41.647l-73.12 6.79c6.992-15.12 12.24-31.88 16.66-48.438zM826.823 1128.53c-13.646-19.706-13.58-60.095.552-68.386l60.976 56.262c-16.227 3.756-45.742 5.449-61.528 12.124z" style="fill:#fff;fill-opacity:1;fill-rule:evenodd;stroke:none"/><path d="m762.396 1238.537 170.833-88.168c3.586-2.197-24.278-28.623-45.417-33.9-45.61-5.793-121.522 51.3-125.416 122.068z" style="fill:#fff;fill-opacity:1;fill-rule:evenodd;stroke:none"/><path d="M904.438 1238.742c-88.17 252.446 291.653 291.558 392.903 299.095l-12.217-63.27c-183.68-8.17-354.995-48.693-329.637-186.742-33.183-20.766-40.294-30.118-51.049-49.083z" style="fill:url(#g);fill-opacity:1;fill-rule:evenodd;stroke:none"/><path d="M904.657 1238.084c-20.32 9.984-49.445 14.424-77.664 18.767-73.104 306.198 401.322 330.362 492.163 341.63-14.269-28.278-17.853-43.244-21.943-61.698-240.765-15.592-463.415-105.773-392.556-298.7z" style="fill:url(#h);fill-opacity:1;fill-rule:evenodd;stroke:none"/><path d="M2159.546 923.793c26.621 54.882 55.086 119.48 75.17 180.898 11.484-16.793 22.71-33.63 45.686-52.98-12.592-57.641-41.349-118.637-120.856-127.918z" style="fill:#c3bdc9;fill-opacity:1;fill-rule:evenodd;stroke:none"/><path d="M2159.599 923.397c26.816 56.243 57.602 123.582 75.324 181.121l-64.708-9.325c-38.337-41.667-47.508-124.668-10.616-171.796z" style="fill:#fff;fill-opacity:1;fill-rule:evenodd;stroke:none"/><path d="M2060.227 1060.246c16.777-19.208 52.54-25.289 81.383-20.326 6.543 15.943 17.064 38.499 28.847 55.758l-110.23-35.432zM2346.196 993.597l-65.998 58.862 42.851 22.427c34.532-29.62 25.01-81.71 23.147-81.289z" style="fill:#c3bdc9;fill-opacity:1;fill-rule:evenodd;stroke:none"/><path d="M2280.243 1051.495c-10.584 2.19-47.416 53.017-45.01 52.564L2400 1188.082c.626-28.515-25.597-98.498-119.756-136.587z" style="fill:#c3bdc9;fill-opacity:1;fill-rule:evenodd;stroke:none"/><path d="m2234.67 1103.599-118.747 153.36c75.975-3.29 106.454-37.054 133.043-79.015l-14.295-74.345z" style="fill:#c3bdc9;fill-opacity:1;fill-rule:evenodd;stroke:none"/><path d="M2346.269 993.597c-25.46-8.482-59.076-5.787-82.498 7.205 7.794 16.474 13.068 36.793 16.823 51.485l65.675-58.69zM2234.648 1103.778l165.592 84.297c-30.287 24.975-126.023 1.68-151.693-9.537l-13.899-74.76z" style="fill:#fff;fill-opacity:1;fill-rule:evenodd;stroke:none"/><path d="m2234.903 1104.129-64.872-9.23c-72.003 30.168-59.277 153.099-53.824 162.073l118.696-152.843z" style="fill:#fff;fill-opacity:1;fill-rule:evenodd;stroke:none"/><path d="m2169.436 1095.282-109.161-35.184c5.362 26.324 37.513 56.052 61.93 66.03 5.2-4.727 29.275-26.803 47.231-30.846zM2250.805 1178.372c-20.217 29.773-26.479 37.662-48.84 52.82 38.614 177.257-216.026 221.568-363.25 242.25-1.431 24.402-9.165 45.002-16.25 63.75 26.543-1.86 549.207-11.894 428.34-358.82z" style="fill:#fff;fill-opacity:1;fill-rule:evenodd;stroke:none"/><path d="M2253.718 1180.697c70.407 257.857-159.843 331.366-431.057 355.945-6.6 16.046-12.936 33.433-19.535 51.35 368.128-25.716 560.76-144.711 510.532-392.794-23.636-3.616-42.235-8.905-59.94-14.5z" style="fill:url(#i);fill-opacity:1;fill-rule:evenodd;stroke:none"/><path d="M535.276 2987.257c29.572 13.644 66.135 4.363 85.875-1.31 10.604 10.1-3.26 49.856 28.125 78.811-17.928 7.844-116.077-22.337-114-77.501zM493.109 2775.36c12.278 39.207 47.005 43.404 61.175 51.542-.38 14.813-38.366 14.09-39.742 67.715-26.547-2.396-63.491-64.432-21.433-119.257zM690.452 3099.36c47.862 8.074 65.198-17.604 75.925-19.042 5.568 15.67 26.958 36.071 47.74 46.739-9.71 35.145-125.742 27.467-123.665-27.697zM1059.544 2968.298c-2.8-5.972-57.776.684-67.708-8.176-6.894 8.515-8.934 36.601-29.716 47.275 13.269 24.011 105.162 16.065 97.424-39.099z" style="fill:#f6d155;fill-opacity:1;fill-rule:evenodd;stroke:none"/><path d="M1164.254 2478.864c8.21-.97 16.137-2.127 22.856-4.094-32.32 38.87-86.156 106.66-140.243 163.773-54.234 57.265-103.588 113.745-84.846 164.967-37.598-37.374-4.214-73.86 46.671-134.032 55.216-65.294 117.503-140.554 155.562-190.614zm-68.04 414.584c0 26.63-22.14 51.248-75.5 48.744 60.14-65.997-61.44-70.066-32.5-96.996 80.664-50.565 114 27.613 108 48.252zm-57.442 58.044c17.425 3.66 28.388-18.013 32.228-6.975 7.508 21.82-31.875 25.832-32.228 6.975zm-407.027-228.485c-12.252-.486-8.766 49.12-81.5 47.127-1.302-.339-8.129.052-11.97 6.874-8.838 16.595 20.853 50.43 47.907 48.438 23.604-1.738 43.33-15.267 55.563-32.092 5.545-3.118 44.154-24.528 40.968-15.286-45.308 22.12-34.004 36.116 37.844 41.347 45.31-6.72 83.76-45.946 100.032-54.097-46.3 8.023-144.905-22.798-167.782-22.97-3.244-8.418-9.875-15.324-20.469-19.278-.202-.035-.399-.052-.593-.07zm-81.297 253.391c-1.186 4.146-3.63 7.065-6.765 9.269 12.831 8.17 47.326 5.984 51.152 3.174-3.803-.087-32.158-1.801-44.387-12.443zm338.766-205.701c-61.63 30.085-104.016 138.778-257 124.495-3.817 13.363-12.31 16.052-20.188 20.127-31.902-.428-68.684 7.193-68.313 27.129.45 24.145 37.608 39.245 62.5 36.25 25.199-3.041 51.478-27.084 51.5-51.223v-.035c.827-1.96 2.114-3.526 4.75-3.5 169.322-36.582 195.315-123.53 226.75-153.246zm27 2.995C909.5 2814.803 776.1 2937.446 769.9 2977.6c-7.083-5.48-17.299-9.422-38.625-8.31 12.402 61.41-38.883 80.216-52.563 69.689-.085 27.748 40.316 39.277 66.5 34.25 30.78-5.915 56.541-53.017 38.688-81.691 4.068-50.789 70.857-65.576 98.813-130.845 24.641-.249 28.383-38.402 59-45.499-6.433-19.789-31.502 5.966-25.5-41.5zm-394.027-.07c3.924 24.305 14.807 34.538 32.868 49.569-14.537-5.206-28.899-9.275-44.797-23.328 14.593 4.427 3.509-30.054 11.929-26.24zm319.544-65.275c28.253 6.541 65.347 9.128 115.793 6.184-73.375 25.78-106.282 17.022-115.793-6.184zm92.48-46.15c.122 3.928-5.932 11.504-11.537 16.359 35.398-.672 69.916-7.985 94.995-35.976-23.303 10.616-49.713 19.444-83.457 19.616zm50.013-80.88c-2.573 4.726-11.79 14.723-18.726 21.98 29.216 3.257 87.517-10.298 112.597-38.282-23.303 10.61-60.127 16.129-93.871 16.301zm68.28-77.738c-5.233 5.671-22.47 22.388-28.873 27.78 29.216 3.257 95.15-20.09 120.23-48.074-23.303 10.61-57.613 20.121-91.357 20.294zm93.886-86.4c-1.8 33.542-13.096 54.909-25.295 69.14 10.118-3.303 20.236-5.487 30.354-10.118-.973-18.55-2.68-40.472-5.059-59.022z" style="fill:#dfdde2;fill-opacity:1;fill-rule:evenodd;stroke:none"/><path d="M2086.295 2934.834c29.113 7.116 64.557-11.914 81.527-12.259 7.914 15.593 10.983 32.552 43.522 43.526-21.471 23.845-102.19 31.74-125.049-31.267zM2411.483 3066.937c-10.71 10.571-22.576 21.845-42.909 34.02 36.404 33.126 110.465-4.069 107.58-36.166-6.616-12.713-27.966 14.729-64.67 2.146zM2553.39 2950.777c.629 43.136-4.928 54.46-9.808 69.26 20.75 14.13 74.364-19.436 79.994-70.18-5.62-12.04-28.402 8.962-70.187.92zM2651.773 2712.326c-15.416 3.884-6.222 56.308-23.906 72.941 14.507 8.055 24.33 27.346 34.94 44.752 34.023-25.768 32.763-99.15-11.034-117.693z" style="fill:#f6d155;fill-opacity:1;fill-rule:evenodd;stroke:none"/><path d="M2123.38 2929.934c16.324-4.925 34.007-13.242 40.458-11.038 9.863-34.793-13.273-14.57-40.457 11.038zm-22.986-27.894c31.956-.32 76.685 5.122 87.657-37.387 49.466 23.768 101.314-21.961 89.802-64.062 0 0-15.97 72.724-118.306 26.669-20.46-2.99-48.761 9.945-46.893 23.902 1.37 17.822 36.45 32.985-12.26 50.878zm270.632-35.554c25.975 26.317 42.555 50.699 36.78 70.494 16.07-23.22 17.617-9.224 21.147-.306 19.168 14.78 33.54 59.577-14.405 88.577 22.51 6.107 24.375 26.183-.306 33.407 1.066 21.22 57.683-5.218 62.831 3.373 4.4-1.929 5.865-8.266 7.05-15.017 4.777-6.497 5.331-14.04.306-22.99 36.578-60.823-8.827-94.077-47.507-100.835-23.728-24.777-44.478-39.622-65.896-56.703zm1.84-65.588c38.978 24.655 92.034 43.902 142.211 76.626 50.172-50.002 87.194 32.558 15.325 38.006 18.144 33.427 94.747 31.236 92.56 4.593 47.694-90.379-81.615-112.525-107.271-79.992-39.145-22.09-74.952-46.873-131.179-57.317 111.327 47.837 130.444 62.835 110.987 65.429-17.722 2.357-80.052-32.98-122.634-47.345zm34.241-69.51c30.585-13.345 96.94-11.511 114.78-27.474 29.272-53.305 83.577-39.208 100.854-4.516 12.35-.122 21.596 2.561 22.956 12.417-11.384 25.25-4.088 87.045-36.127 71.88 5.849-4.515 2.977-9.032 0-13.548-13.619 13.702-13.706-1.922-13.924-8.278-20.506 24.05-30.887 20.083-45.911 16.557 3.643-1.494 5.262-5.525 4.892-12.04 59.927-23.207 7.93-93.529-40.643-27.85-16.485 4.93-81.766-9.736-106.877-7.149zm-479.813-337.562-2.258 7.147c24.682 22.383 238.304 257.614 301.812 358.264-9.508-21.367-5.509-30.2-43.277-75.265 96.647 54.173 144.165 6.093 138.487-4.517-7.87.926-12.964 2.013-17.211-.21-89.297 45.57-155.546-29.97-195.036-79.948 49.938 39.84 82.79 46.982 134.724 50.054 5.155-9.045 5.845-13.625 7.15-18.818-4.53-.849-8.881-2.057-12.418-4.893-60.76 22.951-133.718-23.149-190.797-100.478 54.316 39.016 93.203 35.24 130.208 35.752 5.724-6.567 13.568-12.29 14.677-20.702-5.217.402-9.288-1.489-13.548-3.009-38.162 13.28-131.64 8.783-176.496-69.618 31.142 20.906 65.766 33.247 109.887 22.203 8.775-6.74 18.32-13.37 20.322-21.073-54.672 13.849-107.864 13.65-156.551-29.358 13.85.14 28.428-4.81 43.277-11.664-28.702 2.402-58.299-.562-92.952-33.867z" style="fill:#dfdde2;fill-opacity:1;fill-rule:evenodd;stroke:none"/><path d="M1264.5 718.085c106.184 56.78 228.534-72.947 314.36-2.465 9.284.536 10.52-6.382 9.028-12.31-99.81-89.477-206.115 42.28-323.387 14.775zM1225.825 2348.665l-8.39 8.86c-10.315 46.61-34.737 83.838-63.024 119.468 25.866 4.196 57.624-10.419 88.349-23.71-19.092-35.657-23.182-59.406-16.935-104.618z" style="fill:#c3bdc9;fill-opacity:1;fill-rule:evenodd;stroke:none"/><path d="M1255.555 2286.57c14.753 29.282 42.879-18.676 56.448-31.611-17.76 63.39-53.107 127.484 24.085 187.036-39.524 4.005-50.555 21.13-13.924 60.21-71.521-35.203-111.897-93.572-66.61-215.634z" style="fill:#dfdde2;fill-opacity:1;fill-rule:evenodd;stroke:none"/><path d="M1315.014 2251.95c-24.642 125.197 15.98 174.095 56.825 185.906-15.635-135.297 38.401-231.974 113.274-305.955-5.009-126.093-22.694-182.68-36.504-273.583.995 42.107 30.831 157.41 10.573 238.029-21.058 83.806-81.072 165.178-144.168 155.603z" style="fill:#cecad5;fill-opacity:1;fill-rule:evenodd;stroke:none"/><path d="M1066.264 2381.032c71.02 4.739 128.793-17.7 175.743-65.857-25.75 62.86-84.264 92.301-171.227 83.543 31.455-5.665 32.252-11.024-4.516-17.686zM1057.537 2309.1c-6.775 10.603-12.173 15.694-17.562 20.754 112.05 14.582 174.53-38.952 216.606-85.684 62.085 3.539 104.919-36.749 142.099-77.7-41.843 33.133-84.728 60.42-133.583 54.282-47.99 69.792-115.587 102.267-207.56 88.348zM1101.178 2223.946c-8.361 17.47-11.023 17.183-15.434 22.887 37.972 7.89 89.998-6.86 178.82-80.9 87.798-2.05 124.551-59.628 149.55-84.616-46.668 40.312-94.012 61.692-142.099 62.267-46.575 47.53-97.583 86.188-170.837 80.362zM1130.45 2153.695l-15.967 25.014c30.561-1.704 70.797-.454 156.468-79.296 65.943-13.918 124.94-63.257 176.691-149.554-43.004 53.037-82.3 109.893-169.24 117.622-22.165 50.801-80.79 71.976-147.953 86.214zM1852.649 2258.005c-5.94 45.506-16.111 86.783-36.19 118.153 2.146 14.902 1.706 29.805 1.064 44.706 30.725-31.305 53.336-120.4 35.126-162.859zM1897.354 2279.826c33.059 85.856 3.424 200.06-102.183 219.799 32.652 13.554 130.541-31.115 144.227-163.914l80.363 90.475c4.335-20.805 7.206-41.814-7.984-72.385-63.578-13.376-83.914-38.371-114.423-73.975z" style="fill:#c3bdc9;fill-opacity:1;fill-rule:evenodd;stroke:none"/><path d="M1949.51 2307.503c43.204 18.882 118.578 46.706 194.254 13.836 11.354 4.675 22.707 8.272 34.06 10.111-25.714 26.93-98.04 33.408-164.45 24.484 91.442-11.976-47.282-22.459-63.864-48.43z" style="fill:#c5bdcb;fill-opacity:1;fill-rule:evenodd;stroke:none"/><path d="M1798.896 2154.225c31.374 22.19 66.563 35.618 106.44 35.126 29.77 56.556 116.596 72.276 165.516 69.72 2.206 7.723 7.39 14.45 13.837 20.755-40.868.174-93.201-13.115-173.498-63.865-21.621-7.479-98.119-43.045-112.295-61.736z" style="fill:#c3bdca;fill-opacity:1;fill-rule:evenodd;stroke:none"/><path d="M1782.398 2069.608c31.268 25.863 65.773 39.584 102.715 44.17 37.932 40.345 82.524 61.13 141.034 68.655l12.24 21.29c-18.371 1.847-107.374-37.987-139.969-68.124-54.626-13.574-95.615-40.677-116.02-65.99zM1789.317 2001.484c36.145 35.452 77.39 49.875 110.698 50.028 24.984 26.196 48.093 53.24 100.586 67.058 2.54 7.16 5.622 13.235 9.58 17.566-39.531-.684-93.83-55.522-100.587-64.4-53.034-7.602-113.282-34.354-120.277-70.252z" style="fill:#c3bdc9;fill-opacity:1;fill-rule:evenodd;stroke:none"/><path d="M1473.867 1840.905c11.455-4.395 16.74-10.846 22.404-17.176 9.547 13.1 23.183 15.981 36.594 19.418-25.507-.894-28.733 11.115-16.43 32.11 5.227 8.388 14.182 134.026 16.43 209.86.282 70.246 9.707 115.866 23.898 146.373-55.519-46.764-24.726-329.64-82.896-390.585z" style="fill:#dfdde2;fill-opacity:1;fill-rule:evenodd;stroke:none"/><path d="M1566.472 1846.137c31.043-2.913 61.74-4.663 98.58-26.886l13.442 15.681c-26.423 57.662-41.305 193.801-58.252 315.902 4.86-77.712 6.446-147.089 2.24-166.539-8.504-43.87-6.8-70.565-5.974-77.668 16.762-60.95-29.234-46.048-50.036-60.49z" style="fill:#cecad5;fill-opacity:1;fill-rule:evenodd;stroke:none"/><path d="m1690.443 1841.653 3.734 3.736c-52.352 114.154.249 375.894-112.769 507.83l-2.24-50.782c85.634-56.505 64.188-345.002 111.275-460.784zM1501.499 2123.2c-.585 186.947 30.205 222.316-97.086 377.894 59.3-49.428 125.621-200.745 117.25-114.263 15.018-27.748 29.55-55.323 32.86-79.162-49.095-83.933-46.942-132.537-53.024-184.469zM1604.56 2329.323l-23.899 28.38 6.721 247.196c3.046-102.58 8.17-196.848 17.177-275.576z" style="fill:#c3bdc9;fill-opacity:1;fill-rule:evenodd;stroke:none"/><path d="M1661.317 2150.086c-6.507 38.217-10.818 84.12-20.91 109.784 17.266 197.787 71.065 216.784 115.756 234.497-74.56-105.721-89.289-247.636-94.846-344.28z" style="fill:#dfdde2;fill-opacity:1;fill-rule:evenodd;stroke:none"/><path d="M1517.929 2409.233c-23.111 52.257-15.477 152.62-80.656 218.068 54.058-27.697 74.591-94.857 76.175-147.12l5.228 55.265c-17.94 113.279-69.374 144.125-105.301 150.857 5.698-1.577 62.088 10.33 113.889-104.553 1.703 41.73-27.611 88.194-65.72 103.806 33.318 1.112 66.348-29.499 83.27-53.024-27.351-80.778-27.856-152.294-26.885-223.299z" style="fill:#e0dee2;fill-opacity:1;fill-rule:evenodd;stroke:none"/><path d="M1542.947 2579.131c5.584 27.129 13.521 66.681 44.062 104.93l2.24 47.793c14.01-18.371 68.09-171.534 69.08-221.799 2.018-15.93 2.907-34.429 14.564-22.407 1.494 1.111 2.987 1.13 4.48-.748-16.387-11.198-33.654-66.502-46.675-84.765 9.716 59.814 17.306 144.514-43.689 270.721-18.405-21.947-31.543-57.06-44.062-93.726z" style="fill:#c3bdc9;fill-opacity:1;fill-rule:evenodd;stroke:none"/><path d="M1803.855 2676.39c-65.724 33.758-122.296-47.659-149.446-98.223l12.193-69.038c.266-2.28 5.123-3.986 7.3-.92 10.826 76 58.909 164.7 129.953 168.18z" style="fill:#dfdde2;fill-opacity:1;fill-rule:evenodd;stroke:none"/><path d="m1642.647 2604.522-7.095 20.913c25.356 56.218 55.211 75.764 94.099 89.99-76.371-37.617-81.557-74.257-87.004-110.903z" style="fill:#dfdde1;fill-opacity:1;fill-rule:evenodd;stroke:none"/><path d="m1569.459 2700.867 20.164 34.723 15.31-33.982c-2.868 91.637-8.83 202.316-11.576 304.326-8.413-102.31-19.925-208.971-23.898-305.067z" style="fill:#dfdde2;fill-opacity:1;fill-rule:evenodd;stroke:none"/><path d="M1628.457 2643.736c-1.867 5.231-3.734 10.175-5.6 13.44 67.776 251.392-11.997 385.443-29.873 405.149-46.97-83.353-46.43-165.434-56.758-235.621 6.05 62.944-.837 144.775 53.77 246.818l.746 41.45c66.55-82.944 106.98-198.075 55.265-447.717-7.469-6.221-11.85-15.528-17.55-23.519z" style="fill:#c3bdc9;fill-opacity:1;fill-rule:evenodd;stroke:none"/><path d="M1568.339 3092.193c5.678 9.115 10.604 18.358 22.03 26.515 14.716-15.369 17.888-23.046 24.272-32.864-12.408 66.706-18.04 131.72-26.885 197.537-6.105-65.077-10.616-135.999-19.417-191.188z" style="fill:#dfdde2;fill-opacity:1;fill-rule:evenodd;stroke:none"/><path d="M1687.456 3103.027c-14.371-32.098-31.37-59.7-20.538-95.22-2.075-10.95-6.62-12.623-11.575-14.936-3.029 18.959-9.742 32.418-15.684 45.55 25.45 152.761-10.687 234.951-52.65 303.957-68.787-92.608-56-192.415-57.131-277.818-20.044 173.373 21.834 249.63 56.384 289.022l.374 42.19c97.975-143.958 88.32-277.639 66.467-341.291 10.834 16.595 20.723 33.816 34.353 48.546z" style="fill:#c3bdc9;fill-opacity:1;fill-rule:evenodd;stroke:none"/><path d="M1316.289 2664.643c13.136 125.945 173.019 87.785 237.86-7.468l-5.974-17.176c-60.459 78.351-189.358 148.002-231.886 24.644z" style="fill:#c4bec9;fill-opacity:1;fill-rule:evenodd;stroke:none"/><path d="M1539.213 2710.947c-58.655 121.71-129.3 208.37-226.658 216.95 66.332 5.289 137.355-48.585 159.445-72.072 15.95-27.684 36.613-37.534 16.43-.37-7.825 13.043-15.618 22.573-28.006 34.352 15.685-6.356 48.168-56.498 54.89-60.861 2.766-52.711 14.687-81.87 23.899-118z" style="fill:#dfdde2;fill-opacity:1;fill-rule:evenodd;stroke:none"/><path d="M1514.997 2833.226c-1.13 13.88-2.348 27.933-2.113 39.079-92.442 94.959-172.309 125.032-257.173 105.09 70.069 1.89 151.277 9.332 259.286-144.17z" style="fill:#c3beca;fill-opacity:1;fill-rule:evenodd;stroke:none"/><path d="M1215.577 2888.146c-20.36-50.494-12.733-91.202 23.235-121.985-72.547-1.525-151.21 133.42-16.898 201.729-67.213-39.265-70.61-121.187-48.681-148.091 14.648-23.38 36.194-29.914 21.22-3.73-10.389 42.138 8.506 63.64 21.124 72.077zM1650.185 2674.805c13.732 22 30.638 40.83 52.807 54.39-6.03 123.18 129.467 204.847 221.265 170.04-52.736 38.594-226.534 29.185-274.072-224.43z" style="fill:#dfdde2;fill-opacity:1;fill-rule:evenodd;stroke:none"/><path d="M1670.252 2829.533v14.787c63.607 105.901 170.6 109.753 203.31 105.614-99.895-1.891-162.464-48.214-203.31-120.4z" style="fill:#c4c0cd;fill-opacity:1;fill-rule:evenodd;stroke:none"/><path d="M1947.492 2752.434c84.358 58.511 61.065 149.516-29.572 187.465 69.736-45.896 103.996-105.339 29.572-187.465z" style="fill:#e1dfe3;fill-opacity:1;fill-rule:evenodd;stroke:none"/><path d="M1848.742 2965.775c80.142 14.628 215.743-48.265 143.109-188.525 73.476 85.32-8.698 238.572-143.11 188.525z" style="fill:#c3bdc9;fill-opacity:1;fill-rule:evenodd;stroke:none"/><path d="M1670.78 2914.023c-.701 7.94-1.124 12.852-3.169 25.876 68.61 136.932 106.924 145.951 151.558 181.658-83.138-62.126-125.634-132.767-148.39-207.534z" style="fill:#e0dee3;fill-opacity:1;fill-rule:evenodd;stroke:none"/><path d="M1783.26 3171.195c14.517 6.446 25.746 1.719 37.494 5.813 104.903 36.544 234.747-25.767 195.916-152.613 68.652 66.89-57.648 259.05-233.41 146.8z" style="fill:#c4becb;fill-opacity:1;fill-rule:evenodd;stroke:none"/><path d="M1967.56 2987.43c79.47 78.791-2.156 187.777-108.257 150.499 112.431 15.17 154.016-78.032 108.256-150.5z" style="fill:#c3beca;fill-opacity:1;fill-rule:evenodd;stroke:none"/><path d="M1196.038 2986.9c-108.69 71.554-48.66 160.17 1.584 180.603-19.112-14.09-39.496-63.493 20.067-35.91 19.603 8.406 37.059 9.3 53.864 7.92-111.22-36.531-86.515-95.713-75.515-152.614zM1513.94 2887.092c2.624 37.227 6.707 67.16 12.147 90.302-34.91 69.753-77.051 116.268-120.402 149.446 50.859-49.204 90.11-98.492 107.2-150.506-88.54 138.177-149.91 159.417-213.344 162.648 78.901-17.38 194.133-85.51 214.4-251.89z" style="fill:#dfdde2;fill-opacity:1;fill-rule:evenodd;stroke:none"/><path d="M1527.142 2982.677c2.428 11.172 5.05 22.216 11.618 30.622-111.547 215.104-260.583 208.915-311.565 191.17 96.574 9.99 62.969-7.455 31.684-13.204 114.455 3.667 215.533-74.013 268.264-208.588z" style="fill:#c3bec9;fill-opacity:1;fill-rule:evenodd;stroke:none"/><path d="M1435.297 1798.555c14.399-9.722 21.248-21.341 29.608-33.075 3.087 5.877 8.87 10.993 16.166 16.167-21.115 6.905-28.5 38.007-40.373 38.166-1.889-6.905-1.947-14.347-5.401-21.258z" style="fill:#c4beca;fill-opacity:1;fill-rule:evenodd;stroke:none"/><path d="M1482.256 1782.088c31.592 11.875 63.867 10.341 103.767-17.688 3.535 3.66 8.573 8.068 13.466 12.412-38.104 27.16-100.49 20.178-117.233 5.276zM1617.18 1781.826c22.43 3.788 44.41 8.879 73.667-7.129 4.224 5.615 8.449 10.035 12.674 14.257-9.556 9.582-57.51 8.196-86.341-7.128zM1709.857 1721.89c7.215 4.427 20.175 17.394 32.741 24.816-9.33 13.108-18.658 27.997-27.988 44.625-41.619-36.11-12.42-74.148-4.753-69.44zM1406.213 1732.187a1988.5 1988.5 0 0 1 13.994 19.802c25.441-17.661 34.02-36.671 42.246-55.713-3.727-2.133-7.27-5.187-10.297-10.827-20.059 35.509-32.69 39.82-45.943 46.738zM1464.302 1697.336l-2.905 5.545c50.237 28.814 131.809 50.424 235.523-2.115l-10.298-21.124c-67.188 52.597-143.163 61.462-222.32 17.694zM1705.369 1697.068c29.597-5.583 19.324-42.414 46.735-53.599 44.9 67.537 121.637 50.002 152.878-1.322l5.017 38.026c-29.611 18.818-68.915 51.504-134.396 21.124-5.158 10.93-6.324 28.131-6.6 46.732-28.699-9.498-51.79-24.605-63.634-50.96z" style="fill:#c3bdc9;fill-opacity:1;fill-rule:evenodd;stroke:none"/><path d="M1796.198 1571.653c11.393 21.986.74 72.072 1.32 88.45-21.852-2.996-33.96-20.818-45.678-35.643 2.304-.428 3.85-1.08 4.753-2.907 2.699-13.74 28.233-20.076 39.605-49.9z" style="fill:#c3bdc9;fill-opacity:1;fill-rule:evenodd;stroke:none"/><path d="m1599.225 1633.434-2.376 3.168c34.43 12.514 105.81 18.8 156.575-15.58l-8.977-16.102c-35.471 30.328-80.946 44.554-145.222 28.514z" style="fill:#c3beca;fill-opacity:1;fill-rule:evenodd;stroke:none"/><path d="M1579.158 1621.815c6.297 4.944 12.36 8.962 17.955 11.096-47.252 43.231-115.494 31.459-184.299-4.753.704-2.114.153-4.228-.528-6.343 79.48 43.053 134.992 30.872 166.872 0z" style="fill:#c3bdc9;fill-opacity:1;fill-rule:evenodd;stroke:none"/><path d="M1408.853 1621.553c16.72 26.458-25.72 35.043-25.875 74.461l-16.635-21.124c-.696-25.819 33.828-21.68 42.51-53.337zM1362.646 1666.97l-32.476-49.377c-34.196-44.534 78.85-53.394 66.538-136.772 7.217 5.704 14.434 13.082 21.65 16.902-4.13 67.14-62.92 65.37-63.897 111.42-7.505-2.843-11.316-9.845-13.201-19.01-2.907 2.197-3.562 2.42-6.602 5.544-14.247 17.522 6.743 27.454 27.988 71.293z" style="fill:#c3bec9;fill-opacity:1;fill-rule:evenodd;stroke:none"/><path d="M1393.584 1576.533c33.02 4.72 65.489-.017 96.526-29.498 5.33 5.155 9.5 10.604 16.617 15.311-39.573 24.094-92.594 27.371-113.143 14.187z" style="fill:#c3bdc9;fill-opacity:1;fill-rule:evenodd;stroke:none"/><path d="m1508.22 1563.464-3.734 2.99c54.787 31.382 131.294 31.159 172.514 2.989-5.835-3.38-10.832-7.595-15.683-11.951-49.045 36.045-122.89 24.426-153.097 5.972z" style="fill:#c4beca;fill-opacity:1;fill-rule:evenodd;stroke:none"/><path d="m1678.307 1569.443-2.8 3.545c38.935 15.12 87.026 13.625 120.797-4.292-2.308-6.407-4.876-12.622-9.149-17.553-36.59 28.833-72.75 26.368-108.848 18.3zM1424.168 1501.683c57.17 29.07 119.535 9.735 153.67-20.332 5.809 7.378 11.618 11.664 17.427 15.58-42.63 37.393-152.29 32.71-171.097 4.752z" style="fill:#c4bec9;fill-opacity:1;fill-rule:evenodd;stroke:none"/><path d="m1597.377 1497.723-2.904 2.637c51.508 35.197 130.165 13.945 151.03.263-2.64-8.272-5.281-15.49-7.922-21.648-36.182 30.949-90.035 41.092-140.204 18.748zM1279.474 1424.846l7.393 4.222c7.855-11.249 14.323-13.957 17.565-9.498 3.241 4.458-2.718 12.724 5.67 20.063 26.627-21.174 87.674-35.202 95.055-66.54 11.22 31.383 49.261 32.284 80.268 86.604-7.332-41.251-49.644-52.532-66.987-80.267-17.343-27.735-7.076-62.427 6.786-107.198-28.77 38.978-6.108 94.327-53.05 119.098-29.795 15.72-86.631 12.258-92.7 33.516zM1526.086 1228.93l1.585 36.966c-48.814 19.092-10.766 141.243-30.1 167.925-7.72-104.228-50.635-141.742 28.516-204.89zM1565.692 1317.648h5.81c6.339 68.297 77.971 74.8 90.3 142.049-15.232-46.617-55.909-60.21-77.627-85.02-12.497 52.181-75.503 67.69-91.357 97.17-4.346-24.28 86.916-58.275 72.874-154.199zM1673.948 1252.163c-37.535 59.404 37.185 97.635-3.168 196.445 20.996-129.229-69.237-118.683-12.146-212.287 19.798 19.233 87.627 38.741 93.998 71.293-22.807-32.168-57.93-34.615-78.684-55.451z" style="fill:#c3bdc9;fill-opacity:1;fill-rule:evenodd;stroke:none"/><path d="M1752.104 1316.064c7.064 22.843 13.354 31.926 19.01 46.994-20.576 67.167-101.762 90.558-106.143 115.125-14.038-31.39 87.632-48.885 87.133-162.119zM1829.203 1247.41c-12.78-2.708-24.998-.37-39.078-14.788 2.398 21.731-1.18 34.494-4.225 48.061 26.601 15.318 44.163 157.87 54.92 164.226-5.483-61.308-3.011-142.01-40.133-185.88l1.584-7.39c11.248 4.056 19.901 2.957 26.932-4.229zM1331.226 1358.836c25.45-38.147 47.533-82.56 80.2-105.396s53.21-14.06 118.885-67.811l24.82-64.956c-55.423 81.41-120.828 137.161-215.456 117.762 5.637 3.181 8.77 10.98 47.527 13.204-20.063 19.437-37.3 61.404-55.976 107.197z" style="fill:#c3bdc9;fill-opacity:1;fill-rule:evenodd;stroke:none"/><path d="M1317.496 1178.762c49.63 24.867 110.285 37.578 214.4-110.896 22.124-6.061 43.707-18.076 64.425-39.61-66.957 160.88-257.349 259.217-278.825 150.506z" style="fill:#dfdde2;fill-opacity:1;fill-rule:evenodd;stroke:none"/><path d="M1539.288 1271.702c79.425-299.484 320.353-478.396 111.953-637.915 151.129 261.855-89.335 372.605-111.953 637.915z" style="fill:#f1eef0;fill-opacity:1;fill-rule:evenodd;stroke:none"/><path d="M1481.728 1012.415c4.106 78.67 103.574 20.332 127.267-31.153-40.275 27.18-80.16 51.709-127.267 31.153zM1631.174 890.43c9.136-13.497 10.842-1.028 26.404 2.638-36.396 75.86-97.975 96.581-131.491 98.223 45.43-23.59 87.18-50.73 105.087-100.86z" style="fill:#dfdde2;fill-opacity:1;fill-rule:evenodd;stroke:none"/><path d="m1606.8 763.629 7.841 7.838c10.954-.454 21.907-.339 32.86-10.45.157 9.536-3.433 13.81-8.215 16.429 6.15 55.17.07 87.344-7.58 111.956 9.562-9.703 17.367 4.222 25.987 3.577 13.744-21.648 37.262-96.913-.484-162.214 1.06 18.76-19.182 38.07-50.41 32.864z" style="fill:#c3bdc9;fill-opacity:1;fill-rule:evenodd;stroke:none"/><path d="M1477.24 739.662c60.252-24.528 94.683 18.627 121.721 22.709 42.989 63.25-1.555 118.318-30.364 152.09 19.147-32.775 47.18-164.374-91.357-174.799z" style="fill:#c3bdc9;fill-opacity:1;fill-rule:evenodd;stroke:none"/><path d="M1531.367 1306.553c65.61 30.75 96.148-43.896 127.267-72.87-15.506-35.51-11.034-64.656-12.146-95.585-57.005 30.993-55.41 143.44-115.12 168.455z" style="fill:#cecad5;fill-opacity:1;fill-rule:evenodd;stroke:none"/><path d="M1755.536 778.48c-5.382 2.472-5.855 23.609-13.202 23.232-4.571 150.991-141.966 234.925-174.266 453.095 20.05-23.38 34.47-115.424 86.052-200.016 53.838-88.297 106.723-137.852 101.416-276.31z" style="fill:#cecad5;fill-opacity:1;fill-rule:evenodd;stroke:none"/><path d="M1685.215 1063.848c-54.755 147.53 53.733 148.724 63.106 196.785-112.438-37.77-120.317-119.724-63.106-196.785zM1705.38 640.776c181.891 118.266 25.852 356.973-42.196 421.2 26.926-60.299 190.897-226.275 42.195-421.2z" style="fill:#dfdde2;fill-opacity:1;fill-rule:evenodd;stroke:none"/><path d="M1766.618 575.43c18.644 34.18 48.628 88.028 4.48 77.297 77.366 171.738-7.5 260.009-50.084 355.504-89.784 233.928 58.832 141.16 41.497 304.307 50.54-59.002-15.237-144.622-12.393-174.12-3.638-42.855 23.389-135.438 32.183-191.445 10.78 30.885 27.325 49.607 47.05 61.61-34.728-121.609 73.756-361.305-62.733-433.153z" style="fill:#cecad5;fill-opacity:1;fill-rule:evenodd;stroke:none"/><path d="M1784.541 977.96c8.731 12.105 14.906 25.915 29.126 34.359 7.294 47.595-59.522 198.49 41.075 209.853-81.849 40.824-126.438-76.319-70.2-244.212z" style="fill:#cecad5;fill-opacity:1;fill-rule:evenodd;stroke:none"/><path d="M1740.486 528.168c17.107 1.22 57.988 29.913 96.11-.524 26.193 35.611-22.6 65.754-73.899 39.105-13.392-8.585 29.082-12.564-22.211-38.58z" style="fill:#c3bdc9;fill-opacity:1;fill-rule:evenodd;stroke:none"/><path d="M1436.9 541.077c15.39 17.074 31.097 25.915 45.555 67.211 10.704.115 21.409 1.386 32.113 4.484-18.043-28.61-39.89-54.933-77.669-71.695z" style="fill:#dfdde2;fill-opacity:1;fill-rule:evenodd;stroke:none"/><path d="M1602.319 491.413c158.294 42.184 143.39-31.261 171.767-41.82 28.099 44.931-49.073 103.225-171.767 41.82z" style="fill:#c3bdc9;fill-opacity:1;fill-rule:evenodd;stroke:none"/><path d="M1408.894 522.777c-8.96-3.073-17.22-2.51-22.404-1.866 14.082-113.412 139.813-41.391 207.614 1.124-85.581-40.995-192.847-93.106-185.21.742z" style="fill:#c3bec9;fill-opacity:1;fill-rule:evenodd;stroke:none"/><path d="M1409.267 522.777c-7.04-128.942 178.767 18.345 264.746 23.525-59.834 6.784-256.912-124.386-255.784-21.283l-8.962-2.242z" style="fill:#f1eef0;fill-opacity:1;fill-rule:evenodd;stroke:none"/><path d="m1421.216 526.514 15.684 5.972c1.538-11.274 5.838-24.247 11.575-25.391 36.48-7.243 2.28 11.932 8.215 17.924 6.879 4.854 14.538 9.71 22.404 14.564a1090.4 1090.4 0 0 0 1.12-19.419c.626-29.37 84.936 17.924 144.136 37.342 6.533 17.509-32.848 39.488-63.853 33.235 28.175 22.28 87.594 11.46 113.142-25.02 45.513 3.456 55.549-3.992 65.72-15.311-34.787-7.212-50.848 9.9-138.025-14.181-80.082-22.97-177.885-91.241-180.118-9.715z" style="fill:#c3bdc9;fill-opacity:1;fill-rule:evenodd;stroke:none"/><path d="M1493.657 511.95c9.823-.94 18.793 2.375 27.632 6.35-17.749 27.478 8.263 53.693 22.778 49.663 4.917 4.478 9.924 8.961 26.512 13.44-23.428 4.892-101.806-19.26-76.922-69.453z" style="fill:#b6b1bf;fill-opacity:1;fill-rule:evenodd;stroke:none"/><path d="M1286.416 670.65c-87.834-168.971 166.273-198.807 192.017-59.002 0 0 63.022 2.542 118.658 32.117 108.42 78.67 42.56 123.684 20.717 120.069-50.526.881-60.016-47.64-133.76-29.11-17.732 6.619-18.688 15.728-26.611 15.46-43.966-11.173 36.654-99.463 123.224-35.848 7.72 5.672 24.579-5.411 9.709-22.032-58.05-58.593-158.662-26.393-180.73-20.906-28.106-45.576-90.27-35.145-123.224-.748z" style="fill:#f6d155;fill-opacity:1;fill-rule:evenodd;stroke:none"/><path d="M1538.466 532.862c11.048 8.815 67.035 17.905 68.334 23.15-17.938 42.305-76.516 29.249-68.334-23.15z" style="fill:#aaa3b5;fill-opacity:1;fill-rule:evenodd;stroke:none"/><path d="M1913.695 1677.797c-.396.772-1.249 1.22 0 3.168 13.328 6.58 29.81 10.54 49.112 12.143l45.942 270.906c-3.498-70.494-8.41-143.339-10.033-210.703-5.137-12.94-8.912-36.786-12.674-60.733 5.809-.62 11.618-1.552 17.427-3.169 29.096 171.227 100.26 205.689 114.064 219.154-37.647-39.597-88.495-95.278-105.087-222.846 25.219-14.065 36.712-31.14 44.886-33.797 2.531-7.23.92-24.509-2.64-32.743-25.338 24.216-48.217 52.711-99.279 48.584-3.424-.275 0 4.753 0 4.753 19.754 26.445-20.185 10.233-41.718 5.283z" style="fill:#c3bdc9;fill-opacity:1;fill-rule:evenodd;stroke:none"/><path d="m2011.918 1993.059 2.112 41.187c25.483-16.441 49.387-21.494 83.436-99.807 13.905 138.816 15.685 273.768 96.639 301.535-41.833-95.387-41.91-200.131-44.887-301.004-4.929 6.348-9.858 10.922-14.786 15.31-33.298-19.271-43.514-34.69-61.257-52.276-11.15 34.596-16.721 70.948-61.257 95.055z" style="fill:#cecad5;fill-opacity:1;fill-rule:evenodd;stroke:none"/><path d="M2072.065 1657.567c11.187 4.133 23.797 5.43 36.967 5.602l14.19 201.639-51.157-207.241z" style="fill:#dfdde2;fill-opacity:1;fill-rule:evenodd;stroke:none"/><path d="m2168.03 1643.003 6.722-4.854c16.431 37.029 38.612 69.746 70.947 94.843l87.004 585.504-125.838-586.999c-.612 101.104-28.564 168.187-73.935 213.59l-4.854-38.46c47.663-64.847 76.328-142.425 39.954-263.624z" style="fill:#c3bdc9;fill-opacity:1;fill-rule:evenodd;stroke:none"/><path d="M2300.963 1777.431c13.194 7.966 28.38 14.436 45.556 19.412 52.816 176.625 72.755 524.803 3.361 650.85l-5.975-47.792c-121.458-92.839-151.727-351.506-176.248-496.263l3.734-7.09c23.426 132.237 51.058 386.842 169.9 490.284 21.41-67.716 67.655-262.98-15.309-588.494-6.122-6.969-16.125-13.938-25.019-20.907z" style="fill:#c4bec9;fill-opacity:1;fill-rule:evenodd;stroke:none"/><path d="M2226.656 1589.232c10.453-1.278 16.219-.55 32.86-4.484l115.755 172.888-148.615-168.404zM2351 1798.338c16.772 5.736 38.082 10.559 59.745 15.31.646 5.277 169.348 439.088 287.15 472.36-150.6 29.914-226.253-234.24-324.49-390.208-6.993-32.966-14.417-65.492-22.405-97.462z" style="fill:#dfdde2;fill-opacity:1;fill-rule:evenodd;stroke:none"/><path d="M2331.405 1537.326c-1.437 2.261-2.872 4.522-5.281 5.806 68.63 106.303 70.306 171.074 61.257 229.19l27.988 36.434c13.942-81.308-1.119-141.288-20.595-198.03l341.666 496.397-302.06-483.193 63.897 8.98c-53.261-17.872-107.166-23.991-166.872-95.584z" style="fill:#c3bdc9;fill-opacity:1;fill-rule:evenodd;stroke:none"/><path d="M2537.33 1634.041c13.046.105 24.772-.664 33.607-3.36 67.69 110.302 242.195 310.702 221.804 583.263l-21.284-41.45c-161.908-37.4-274.525-240.833-331.96-323.375 94.801 124.981 202.207 288.013 327.852 313.666 10.392-203.479-143.095-403.086-230.019-528.744z" style="fill:#c3bdc9;fill-opacity:1;fill-rule:evenodd;stroke:none"/><path d="m2572.736 1630.266 5.809 10.035c149.802 79.73 317.856 237.684 421.934 121.461-107.868 43.34-282.59-108.858-397.643-166.347l5.281 24.823c-12.728 6.145-24.02 7.984-35.381 10.028zM2360.449 1443.855c.398 4.274-.052 7.697-1.056 10.566l186.411 115.648-170.04-135.718c-4.097 4.35-9.821 6.547-15.315 9.504z" style="fill:#dfdde2;fill-opacity:1;fill-rule:evenodd;stroke:none"/><path d="M2592.595 1552.637c3.254 12.43 7.016 24.35 8.961 38.09 222.98 103.134 356.613 77.73 421.204 37.335l-34.354-12.692c-98.151 64.943-335.667-22.772-395.812-62.733z" style="fill:#c3bdc9;fill-opacity:1;fill-rule:evenodd;stroke:none"/><path d="M2415.6 1376.39c-.01 2.989-1.167 5.972-2.24 8.961 94.656 49.932 160.925 142.655 158.324 206.494l32.113 26.514c-12.365-106.73-50.643-146.654-89.244-186.333l452.943 177.372-439.874-206.123c58.663-13.325 119.829-16.66 170.273-77.668l103.808-3.737c88.536-13.586 189.18-64.834 199.399-112.767l-33.233 3.73c-42.504 93.95-209.996 90.724-296.859 94.103-40.244 75.49-168.294 81.104-255.41 69.454z" style="fill:#c3bdc9;fill-opacity:1;fill-rule:evenodd;stroke:none"/><path d="M2668.77 1355.853c-11.299 9.07-23.18 15.816-35.474 20.907 47.347 10.022 91.436 22.842 131.813 38.837 117.14 12.277 233.174-5.596 238.233-105.3-49.228 79.385-189.686 64.75-334.572 45.556zM2413.733 1286.023c3.194 9.71 4.443 18.263 6.347 27.633l240.101-6.349c-82.163-7.084-166.156-13.26-246.448-21.284z" style="fill:#dfdde2;fill-opacity:1;fill-rule:evenodd;stroke:none"/><path d="M2529.489 1189.315c48.829 22.248 93.312 47.197 129.199 75.424l-31.74-29.127c102.697-8.457 207.145-16.653 322.624-23.15l-365.192-2.241-54.891-20.906zM2452.334 1197.772c-1.092 5.103-3.831 10.207-5.808 15.317l80.267-23.238c120.115-86.118 125.812-129.203 140.997-175.852l183.243-114.064-208.063 103.506c-113.002 1.092-141.889 16.754-176.377 25.876 95.775-20.754 158.76-24.312 193.804-13.203l-22.18 13.727c-28.896 95.38-136.676 150.933-185.883 167.93z" style="fill:#c3bdc9;fill-opacity:1;fill-rule:evenodd;stroke:none"/><path d="M2451.447 1119.484c3.435 6.062 3.954 13.581 5.6 20.537 57.327-30.673 110.872-65.128 164.3-99.698-56.633 27.792-113.267 56.166-169.9 79.161zM2606.037 1131.436c64.494-5.455 130.057-6.982 197.533-1.494 15.757-8.873 179.19-56.583 139.654-143.02-46.997 94.665-221.513 127.07-235.247 134.805-27.442 2.791-95.235 5.544-101.94 9.709z" style="fill:#dfdde2;fill-opacity:1;fill-rule:evenodd;stroke:none"/><path d="m2875.637 887.97 36.22-15.68c3.868 7.332-22.334 56.569-68.748 108.066-60.604 67.172-96.238 96.274-211.68 117.098 2.254-3.08 4.311-6.164 6.068-9.243 89.26-24.293 212.075-111.356 238.14-200.24z" style="fill:#dfdce1;fill-opacity:1;fill-rule:evenodd;stroke:none"/><path d="m2491.774 982.814-10.455 16.436c102.928-74.18 184.344-119.5 246.449-138.912 61.646-65.147 75.711-129.503 50.036-166.91 3.948 120.42-187.251 210.493-286.03 289.386z" style="fill:#dfdde2;fill-opacity:1;fill-rule:evenodd;stroke:none"/><path d="m2425.682 1028.748-3.735 30.616c76.079-55.528 117.04-156.376 106.421-241.593l-27.258 28.003-118.744 96.345c6.391 5.723 13.399 11.447 17.924 17.176l100.82-110.531c6.674 91.055-54.67 161.754-75.428 179.984z" style="fill:#c3bec9;fill-opacity:1;fill-rule:evenodd;stroke:none"/><path d="m2529.115 886.105-7.094 25.391c49.115-30.94 83.55-63.422 113.889-96.338 84.964-98.785 96.024-184.635 103.06-225.912l-36.594 29.499c5.913 125.504-134.786 246.441-173.26 267.36z" style="fill:#dfdde2;fill-opacity:1;fill-rule:evenodd;stroke:none"/><path d="M2487.294 815.529c14.19-.594 28.379-.99 42.568.376l166.913-191.559-209.481 191.183zM2364.443 706.868l-20.538 23.897c8.784 47.07 8.452 110.442-61.239 187.452l2.241 4.107 4.854-1.494c55.198-68.763 113.278-86.61 171.394-103.806-33.835 8.425-67.587 13.957-105.674 33.605 25.983-78.842 14.412-119.225 8.962-143.76z" style="fill:#c3bdc9;fill-opacity:1;fill-rule:evenodd;stroke:none"/><path d="m2372.284 769.601-.374 15.311c59.713-36.715 120.19-81.333 174.755-142.271 31.873-41.047 72.804-98.606 77.669-176.995l-31.367 24.65c-6.202 130.326-174.17 242.577-220.683 279.305zM2236.738 752.796c48.425-20.94 95.682-40.785 128.452-47.045l210.228-195.296c-56.21 40.689-174.375 142.968-229.98 184.469-19.15 14.289-38.374 13.829-108.7 57.872z" style="fill:#dfdde2;fill-opacity:1;fill-rule:evenodd;stroke:none"/><path d="M2586.62 491.79c-531.52 92.761-826.766 734.004-471.24 676.235l-19.79-4.849c-71.132 6.266-89.332-55.707-82.414-94.945 6.304-42.824 47.141-66.356 58.889-70.386-3.162-37.802-4.39-75.298 32.486-106.885 14.8-35.777 31.684-54.199 48.543-72.812 55.863-202.297 337.787-303.055 433.526-326.358z" style="fill:#f1eef0;fill-opacity:1;fill-rule:evenodd;stroke:none"/><path d="M2339.051 729.276c-66.435 9.672-157.509 83.18-171.304 113.88-1.388 3.09.764 7.479-22.868 20.172l1.12 4.106c22.81-9.69 84.539-.402 26.512 14.188 38.06-1.022 71.172 14.02 93.352 64.604 122.855-18.716 153.285 71.082 122.478 130.691 80.98 70.207 29.763 160.63-14.563 177.366 27.007 60.07 41.283 139.89-41.448 170.646-.231 53.586-7.63 137.015-134.427 135.923-15.172 36.09-60.208 97.762-136.667 64.975 0 0-.087 2.216-.746 4.477-1.242 4.222 31.613 12.456 32.113 10.457 26.058 2.996 29.098 20.032-2.614 12.699-11.5-3.411-21.686-6.184-29.872-10.087.177 2.741.28 5.481-1.495 8.215 82.568 28.527 130.173-21.354 156.085-64.228 98.439-5.154 139.177-59.417 144.135-144.13 80.621-50.52 69.27-126.68 44.435-179.238 71.837-53.72 66.692-148.04 12.323-191.93 36.924-123.9-73.557-157.302-131.813-148.614-19.596-33.024-32.416-37.815-46.303-47.051l104.18-141.525-126.584 130.32c-12.617-4.324-29.081-6.247-49.663-5.601 26.822-67.435 132.131-118.523 173.634-130.315z" style="fill:#c3bdc9;fill-opacity:1;fill-rule:evenodd;stroke:none"/><path d="M1370.806 581.403c15.796 23.576 42.29-6.592 86.63 39.954l5.229-2.235c-9.97-40.051-37.032-64.426-76.922-68.712 17 14.934 4.62 15.815 3.955 25.359-.584 8.387.251 18.658-18.892 5.634zM1300.606 653.845c24.061-13.076 76.501-32.705 109.782 14.193 104.865-30.674 179.034-2.549 189.317 39.578 6.502-11.466-23.089-74.908-142.641-64.228-102.118-71.414-160.003-6.841-156.458 10.457z" style="fill:#dfa12f;fill-opacity:1;fill-rule:evenodd;stroke:none"/><path d="M1460.424 743.84c-18.204-.766 38.504-67.78 131.44-3.737 33.316 13.025 49.202-3.954 42.941-31.369-2.213-20.192-13.38-31.427-20.164-47.045 46.74 35.1 52.425 78.383 20.758 95.82-49.216 24.53-83.81-62.784-174.975-13.669z" style="fill:#dea12f;fill-opacity:1;fill-rule:evenodd;stroke:none"/><path d="m1383.457 1699.719 20.506 29.696-5.656-3.532c-58.402 27.914-88.548 16.978-117.38 4.241l-2.829-2.12c-59.997 11.867-98.189-3.884-130.107-27.582 2.261 17.86 14.779 31.612 31.112 43.845l-62.932 275.773 30.405-258.801c-36.09 101.077-83.34 148.34-148.492 176.77l4.95-28.284c59.53-30.437 110.422-88.104 134.35-212.836-23.727 3.15-47.476 6.075-72.125 0l-59.397 204.354 28.284-211.425c-25.807-17.093-47.423-38.37-68.59-60.108v-3.532c6.372 9.064 12.948-18.448 12.022-26.873 44.39 72.321 107.657 85.85 168.998 65.059-.235 6.834.101 12.909-2.828 23.333l2.828-.71c2.568-.156 3.622-6.553 5.304-12.02-1.82-1.246-2.273-4.21-3.182-6.363l.707-2.12c33.932 61.091 118.218 32.474 128.693 37.476-1.296 3.258.734 12.066 2.122 19.802l1.414 2.12c1.65-3.539 1.886-8.489.707-14.85l-2.828-5.66 2.474 1.417c28.8 21.373 68.193 19.961 101.47-7.072z" style="fill:#c3bdc9;fill-opacity:1;fill-rule:evenodd;stroke:none"/><path d="M1187.942 1748.508c19.327 9.019 39.532 16.499 61.519 20.862-10.365 129.362-75.898 277.269-144.958 321.024l1.768-36.416c-16.907-28.266-30.298-73.58-33.941-166.169l5.657-5.659c1.582 64.49 8.569 123.748 30.052 168.998 32.84-24.675 104.572-106.936 115.612-265.164.609-9.671-2.034-15.733-7.425-18.735-12.879-7.11-20.617-12.935-28.284-18.741z" style="fill:#c1c0c8;fill-opacity:1;fill-rule:evenodd;stroke:none"/><path d="M937.98 2295.807c74.624 19.898 124.027-124.086 152.442-221.03-13.043-25.967-31.667-52.897-32.941-170.704l-6.364 6.361c-7.897 150.998-9.298 317.696-113.138 385.373z" style="fill:#c3bdc9;fill-opacity:1;fill-rule:evenodd;stroke:none"/><path d="m973.714 1638.193 4.5 4.503c-5.596 28.522-44.113 132.065 3.5 232.996-26.632-39.303-48.874-101.512-8-237.499z" style="fill:#dfdde3;fill-opacity:1;fill-rule:evenodd;stroke:none"/><path d="m933.214 1701.693-14.5 23.002-158.5 643.497 168-536c8.337 31.223 18.827 63.647 62.5 114.499-61.665 218.732-159.475 414.047-243.5 465.506l8-26.503c-35.796-108.366-7.133-336.034 54-565-39.03 125.498-119.513 400.001-68.5 599.998l-16 49.504c166.32-113.617 264.154-398.314 301-543.505-9.023 7.27-19.16 11.191-29.5 14.5-52.212-46.745-77.4-122.138-63-239.498z" style="fill:#c3bdc9;fill-opacity:1;fill-rule:evenodd;stroke:none"/><path d="M833.328 1521.523c4.162 19.725 27.379 42.95 38.89 62.937 6.175 10.33 13.092 14.353 21.92 2.12l7.072-11.311c17.36 19.501 40.998 29.823 75.66 24.036l-41.719 96.172c-48.388 93.79-112.82 114.04-176.777 136.473l19.8-36.774c83.26-7.947 142.77-90.06 173.948-166.168-20.787-4.657-40.82-12.801-64.261-28.08l-98.374 170.914 65.054-172.537c13.105-27.128-21.32-48.4-21.213-77.782z" style="fill:#c3bdc9;fill-opacity:1;fill-rule:evenodd;stroke:none"/><path d="M793.73 1820.63c-11.648 4.855-23.791 9.211-36.77 12.731-107 239.857-167.022 453.925-357.797 520.848 173.164 32.846 289.56-244.582 331.634-327.807 30.914-75.547 49.358-145.862 62.933-205.772z" style="fill:#cecad5;fill-opacity:1;fill-rule:evenodd;stroke:none"/><path d="M817.714 1528.192c-19.469 23.34-85.66 115.89-44 270.504l3.5-4.504c-29.816-102.528 1.222-216.803 40.5-266z" style="fill:#e0dee4;fill-opacity:1;fill-rule:evenodd;stroke:none"/><path d="M746.353 1664.715c-5.582 40.146-3.514 71.689-1.767 103.595-129.793 229.878-346.55 442.07-471.641 450.775 159.57-213.749 319.141-434.634 478.712-651.948 10.253-4.376 20.506-11.421 30.759-18.39-16.745 24.701-24.48 44.886-27.931 62.937l-438.76 562.503c146.63-12.15 386.915-359.567 422.85-453.255.26-28.067 3.8-43.02 7.778-56.217z" style="fill:#c3bdc9;fill-opacity:1;fill-rule:evenodd;stroke:none"/><path d="m299.461 2182.318 10.253-12.73c-12.635-217.04 233.239-475.094 299.46-556.14-10.987 23.494-324.39 298.8-309.713 568.87z" style="fill:#dfdce1;fill-opacity:1;fill-rule:evenodd;stroke:none"/><path d="M121.27 1793.764c36.811 57.681 98.738 93.778 330.927-47.377 46.433-51.184 92.866-103.8 139.3-147.785l-11.314-.708c-78.193 32.641-280.034 244.104-458.913 195.87z" style="fill:#dfdde2;fill-opacity:1;fill-rule:evenodd;stroke:none"/><path d="M725.14 1386.469c-29.733 12.341-144.694 53.957-156.27 183.14l-24.75 13.79c156.338 52.054 275.446-66.04 299.107-88.034-24.384-15.623-49.247-28.373-70.004-65.76l-20.506 9.894c-50.473 41.948-111.344 82.426-170.06 121.627l182.081-92.633c10.558 11.83 22.667 24.05 48.083 39.597-110.328 75.79-196.567 72.014-238.648 61.167 6.094-74.69 50.671-138.24 150.967-182.788z" style="fill:#c3bdc9;fill-opacity:1;fill-rule:evenodd;stroke:none"/><path d="M549.213 1540.194c-3.42 15.752-7.419 32.085-7 43.998-49.783 19.616-104.722 35.215-166.5 45.5-3.499.989-19.792 7.243-26-4.498-7.104-4.586-15.065-5.736-23.5-5.001-1.444-3.852-9.259-2.146-10.25-5.75 151.28-26.201 220.316-62.425 233.25-74.25z" style="fill:#cecad5;fill-opacity:1;fill-rule:evenodd;stroke:none"/><path d="M379.713 1428.691c-39.869 19.419-205.903 107.664-234.5 192 80.874 24.503 141.626 3.092 178.25-.37-1.673-2.32-8.477-1.866-9.25-5.628-60.378 8.719-132.455 12.781-152.5 1.002l15-7.506c4.668-71.567 175.833-161.166 203-179.5z" style="fill:#dfdde1;fill-opacity:1;fill-rule:evenodd;stroke:none"/><path d="M186.213 1605.693c270.5-100.165 401.646-180.86 546-229.502v5.002c-11.543 7.32-106.35 29.55-143.5 83.499l-402.5 141.001z" style="fill:#c3bdc9;fill-opacity:1;fill-rule:evenodd;stroke:none"/><path d="M685.214 1391.196c-18.73 7.85-36.924 14.104-56.5 24.496-88.343-12.839-102.716-34.889-140.5-52.998l7.5-3.002c14 10.17 31.313 18.128 48 26.502 25.892 8.738 32.21-1.711 6.5-11-31.02-9.868-50.427-23.174-67.5-36 30.444-58.97 102.135-87.044 111.5-91.503-39.734 25.838-85.576 48.712-97.5 88.003 61.697-9.141 127.109-19.95 207.5-37.502 6.048 10.68 11.945 21.232 23.5 36.499l-2 2.504-12-14.5-215.5 16.499c59.785 40.9 123.57 44.797 187 52.002z" style="fill:#c3bdc9;fill-opacity:1;fill-rule:evenodd;stroke:none"/><path d="M131.523 1308.687c25.086 83.218 233.714 62.024 357.09 53.388l6.364-2.122c-10.001-6.955-18.732-13.905-24.042-20.862-51.317-10.762-284.495 38.237-339.412-30.404zM524.675 1263.08l2.475 2.12c-14.614 12.322-29.227 23.02-43.84 40.657-193.275.434-314.931-76.575-349.312-121.27 47.798-38.632 108.128-52.206 171.827-59.04-54.755 16.256-118.867 25.742-148.139 60.459h-13.788c89.739 100.26 329.095 144.96 380.777 77.073z" style="fill:#dfdde2;fill-opacity:1;fill-rule:evenodd;stroke:none"/><path d="M169.707 1189.187c128.493 18.083 253.835 33.81 385.727 54.448 17.833-15.676 49.824-25.927 99.702-29.345-16.925-.454-30.941-2.223-57.629 1.763-147.023 2.102-285.876-16.218-427.8-26.866zM720.544 1169.743c-12.04 12.59-18.437 30.82-22.981 50.91-141.284-46.088-164.285-134.589-168.999-143.544 84.893-58.952 136.057-36.997 206.476-38.537-149.66-6.962-189.018 32.213-195.516 39.949 56.187 15.394 95.916 29.645 216.375 49.498-11.512 8.176-18.762 15.745-23.688 22.982-46.536-18.996-132.504-45.365-193.747-69.293 9.664 40.81 72.834 102.254 125.865 118.082 14.817 3.928 31.002 11.274 36.77-7.423 2.248-7.703 13.967-19.769 19.445-22.624z" style="fill:#c3bdc9;fill-opacity:1;fill-rule:evenodd;stroke:none"/><path d="M183.142 984.124c26.653 27.07 129.996 116.402 318.199 94.046 7.188 18.376 14.377 25.122 21.566 32.525-49.953-7.607-100.08-13.139-150.967-9.543-82.703-24.886-158.23-54.902-188.798-117.028zM567.102 1023.012c2.934 1.782 5.71 3.724 9.545 4.6-30.813 12.213-54.622 25.498-73.185 39.596-94.913-29.402-229.588-99.417-278.247-187.733 58.766-26.202 158.487-14.046 216.375 0-64.231-.594-140.946-13.67-179.252 11.664l-28.991-10.252c11.544 37.719 213.466 213.737 333.755 142.125z" style="fill:#dfdde2;fill-opacity:1;fill-rule:evenodd;stroke:none"/><path d="M272.591 896.09c120.594 42.145 235.056 83.825 331.28 124.098 30.014-7.287 59.31-5.243 88.389-.356-6.686-6.58-13.647-12.329-19.446-21.565l-2.475 1.061 12.021 15.912c-163.553-55.765-284.365-86.093-409.769-119.15z" style="fill:#c3bdc9;fill-opacity:1;fill-rule:evenodd;stroke:none"/><path d="M651.955 943.818c-9.165-17.349-17.896-35.138-18.739-60.81-45.264 21.277-252.37-68.374-301.581-181.02 3.371 99.188 180.19 176.887 320.32 241.83z" style="fill:#dfdde2;fill-opacity:1;fill-rule:evenodd;stroke:none"/><path d="M771.81 1005.689c-6.222 6.873-11.511 15.145-19.446 19.45-4.03 2.594-7.754 2.108-11.314 0-72.976-46.796-87.631-127.95-85.914-144.603 56.138-9.537 134.624-8.247 242.538 58.69-23.639-5.028-103.466-63.781-231.224-53.037-2.365 44.094 31.245 128.461 105.36 119.5z" style="fill:#c3bdc9;fill-opacity:1;fill-rule:evenodd;stroke:none"/><path d="m676.35 893.618 129.4 94.396c16.735.863 33.47.409 50.205 8.483.923-3.328 2.499-7.634 5.303-13.785-71.366-29.702-123.637-59.398-184.908-89.094z" style="fill:#c3bdc9;fill-opacity:1;fill-rule:evenodd;stroke:none"/><path d="m384.213 592.191 34.5 20.498c-4.478 78.268 134.316 230.473 289 242.5-25.291 2.581-53.351 1.923-73.5 10.502-73.067-45.27-122.324-93.47-163-135.501-8.571 1.284-15.236-20.128-29.5-13.497-39.312-50.802-54.883-90.64-57.5-124.502z" style="fill:#dfdde2;fill-opacity:1;fill-rule:evenodd;stroke:none"/><path d="M609.713 652.695c-51.71-20.057-98.66-43.053-188.5-39.501 139.406 101.072 215.535 164.756 318 244 46.793 7.015 91.965 27.8 137.5 45.5-5.864-12.5-10.463-25-13-37.501.735 10.501.518 21.002 7 31.497-60.879-17.515-311.3-195.602-434-275 46.236-14.545 111.6 12.545 173 31.005z" style="fill:#c4beca;fill-opacity:1;fill-rule:evenodd;stroke:none"/><path d="M681.214 657.69c-56.249-48.859-118.762-104.431-133-182.495 65.62 7.787 193.737 52.008 293 123.499-92.464-53.043-179.738-92.787-251-91.503-5.875 64.65 53.64 107.242 91 150.499z" style="fill:#dfdde2;fill-opacity:1;fill-rule:evenodd;stroke:none"/><path d="m594.713 509.19-3 2.504c94.916 70.092 163.646 136.913 238.5 204.5 21.19 17.77 18.17 36.927 20.5 56 7.721-9.012-2.372-39.718 14.084-42.924 15.501-2.97 74.89 27.786 78.417 22.925C803.177 690.114 710 590.945 594.714 509.19z" style="fill:#c3bdc9;fill-opacity:1;fill-rule:evenodd;stroke:none"/><path d="M892.714 884.19c-13.439-21.604-34.16-88.24-20.5-132.998 180.228 38.946 210.484 180.726 213.5 208.998-26.567-102.778-124.6-196.063-192-183.997 41.248 37.917 91.569 115.694 123 148.999-14.895.753-29.809 1.494-39.5 5.5-25.273-2.817-36.94 2.248-50 6.502-13.916-16.11-18.962-28.278-27.5-41.999 18.221 25.717 44.577 21.802 72 13.996-27.667-50.443-55.334-86.744-83-129.497-13.685 10.303-.747 64.093 4 104.496z" style="fill:#e0dee4;fill-opacity:1;fill-rule:evenodd;stroke:none"/><path d="M965.214 692.19c306.585 203.459 329.737 537.878 113 483.001 260-31.235-44.757-417.464-113-483.001z" style="fill:#dfdde2;fill-opacity:1;fill-rule:evenodd;stroke:none"/><path d="M979.345 931.797c25.207-10.559 92.822-9.384 95.813 94.754l-22.273 16.614c.458-28.515 4.984-92.857-73.54-111.368zM1052.885 1044.935l23.334-16.972c111.583 42.458 56.853 163.044-20.86 143.9 92.823-9.492 72.798-127.803-2.474-126.928z" style="fill:#c3bdc9;fill-opacity:1;fill-rule:evenodd;stroke:none"/><path d="M1412.685 263.004c15.174 26.464-26.953 105.894 45.607 93.962 24.59 15.477 46.657 7.078 57.696 7.142 48.082-16.749 46.683-49.914 49.729-58.792-41.727-58.722 5.044-69.926 10.166-73.637 25.812 3.142 39.075 50.756 4.396 65.94 2.747 2.197 6.96 1.833 12.638-1.099-.51 76.274 53.673 81.59 91.215 69.236 73.968 20.216 38.109-65.346 73.082-129.127-39.71 69.894-14.117 133.438-71.983 125.281 14.888-36.084-24.441-64.195-4.945-103.3-30.161 25.812 19.952 73.534 0 98.356-20.413 17.873-40.212 2.99-40.663-4.944-8.346-25.89 50.804-57.329 15.386-104.955 12.135 25.78 7.942 37.38 1.439 53.771-6.504 16.39-31.529 31.249-20.122 63.819-25.918-5.13-39.373-35.88-32.186-60.14 7.084-23.915 19.219-64.004-26.06-76.958-57.17 17.183-28.077 62.433-21.184 70.494 14.036 15.202-11.71 61.078-43.93 60.836 14.746-22.523-2.731-27.07-24.453-62.918-1.59 19.054 43.305 44.79 17.584 59.897-13.188 10.539-31.87 4.343-39.563-3.297-14.557-16.55 20.454-35.84 14.012-67.587-9.391 46.553-22.923 43.78-21.155 65.94-16.847 4.79-34.428 10.872-39.909-21.278.357-44.158-.52-71.293-6.798-66.642zM1709.958 442.963l.824 4.67c-88.65 5.716-178.95-11.25-265.952-13.191v-4.12c88.06 2.165 157.676 17.636 265.128 12.641zM1573.41 458.07l-.275 3.57c50.915 7.96 101.9 16.008 144.241 11.818v-3.846c-51.05 6.356-97.118-3.896-143.966-11.542z" style="fill:#dfa12f;fill-opacity:1;fill-rule:evenodd;stroke:none"/><path d="M1451.698 384.989c-14.062 4.497-7.445 25.116-.274 25.001 16.21.805 32.42 3.117 48.63.55 9.2-4.332 12.223-20.588 1.922-27.199-17.041-2.095-33.96-2.076-50.278 1.648zm-3.022-2.747c27.981-5.366 53.483-1.922 67.862.824 12.885 3.424 12.924 25.876 0 30.494-14.635 1.349-46.099 1.016-67.587-.823-14.134-11.709-6.797-25.87-.275-30.495zM1549.232 407.243c36.514 4.79 67.388 7.627 59.62-20.88-10.406.14-80.704-15.632-59.62 20.88zm-1.099 3.846c-4.945-5.187-11.764-16.398 1.65-30.22 20.395-1.444 41.239-.199 62.366 2.746 19.412 8.023 17.674 25.315 1.649 32.693-34.27-.034-52.505-2.275-65.664-5.22zM1647.825 412.513c36.004 7.742 66.27 14.456 60.844-14.596-10.382-.709-78.893-23.506-60.844 14.596zm-1.407 3.743c-4.508-5.57-10.393-17.298 4.098-29.99 51.685 2.67 43.008 3.303 61.937 7.806 18.697 9.575 15.559 26.669-1.014 32.724-44.828.952-52.572-6.388-65.022-10.54z" style="fill:#e1a02f;fill-opacity:1;fill-rule:evenodd;stroke:none"/><path d="m991.376 980.483-57.385 169.068c15.974-.294 29.634.81 57.385-4.937 25.918-53.235 31.272-128.628 0-164.13z" style="fill:#c3bdc9;fill-opacity:1;fill-rule:evenodd;stroke:none"/><path d="m1037.622 1310.187-103.678-160.24c-2.524-3.36-26.147 66.4-29.412 87.946 12.769 35.125 73.975 71.426 133.09 72.294z" style="fill:#fff;fill-opacity:1;fill-rule:evenodd;stroke:none"/><path d="M1020.636 1186.114c36.315-13.024 43.314-34.928 43.807-48.086l-72.966 6.483c10.36 13.044 20.956 26.554 29.159 41.603zM899.606 1064.756c-14.664-9.735-62.262-13.146-72.216-4.523l60.932 56.313c2.457-16.473 5.887-35.521 11.284-51.79zM761.97 1238.384l170.89-88.053c3.868-1.65-20.474 67.485-28.431 87.766-20.308 10.443-105.037 30.667-142.46.287z" style="fill:#c3bdc9;fill-rule:evenodd"/></svg>